<svg width="15" height="15" viewBox="0 0 15 15" fill="none" xmlns="http://www.w3.org/2000/svg">
<path d="M11.1634 4.45314L10.4201 2.59496C10.3652 2.45766 10.3592 2.30566 10.403 2.16444C10.4469 2.02322 10.538 1.90138 10.661 1.81935L10.6777 1.80828C11.1685 1.48103 11.7453 1.3064 12.3353 1.3064C12.9252 1.3064 13.502 1.48103 13.9929 1.80828L14.0095 1.81935C14.1325 1.90138 14.2236 2.02323 14.2675 2.16446C14.3114 2.30569 14.3053 2.45771 14.2504 2.59502L13.5071 4.45314H11.1634Z" fill="#FFB3B3"/>
<path d="M12.1011 4.6874C12.0469 4.68734 11.9945 4.66853 11.9526 4.63417C11.9108 4.59982 11.8821 4.55203 11.8715 4.49893L11.6371 3.32706C11.6309 3.2968 11.6307 3.26561 11.6366 3.23528C11.6425 3.20495 11.6543 3.17608 11.6713 3.15033C11.6884 3.12458 11.7104 3.10246 11.736 3.08523C11.7616 3.06801 11.7904 3.05602 11.8207 3.04996C11.851 3.0439 11.8822 3.04389 11.9125 3.04993C11.9428 3.05597 11.9716 3.06793 11.9973 3.08514C12.0229 3.10235 12.0449 3.12446 12.062 3.1502C12.0791 3.17594 12.0909 3.2048 12.0968 3.23512L12.3311 4.407C12.3433 4.46795 12.3308 4.53125 12.2964 4.58297C12.2619 4.63469 12.2083 4.6706 12.1473 4.6828C12.1321 4.68584 12.1166 4.68738 12.1011 4.6874V4.6874Z" fill="#FAA6B2"/>
<path d="M12.5701 4.6874C12.5546 4.68738 12.5391 4.68583 12.5238 4.6828C12.4629 4.6706 12.4093 4.63469 12.3748 4.58297C12.3403 4.53125 12.3278 4.46795 12.34 4.407L12.5744 3.23512C12.5803 3.2048 12.5921 3.17594 12.6092 3.1502C12.6263 3.12446 12.6483 3.10235 12.6739 3.08514C12.6996 3.06793 12.7284 3.05597 12.7587 3.04993C12.789 3.04389 12.8201 3.0439 12.8504 3.04996C12.8807 3.05602 12.9095 3.06801 12.9352 3.08523C12.9608 3.10246 12.9828 3.12458 12.9998 3.15033C13.0169 3.17608 13.0287 3.20495 13.0346 3.23528C13.0404 3.26561 13.0403 3.2968 13.034 3.32706L12.7996 4.49893C12.789 4.55203 12.7604 4.59982 12.7185 4.63417C12.6767 4.66853 12.6242 4.68734 12.5701 4.6874V4.6874Z" fill="#FAA6B2"/>
<path d="M4.21875 13.8284C5.90149 13.8284 7.26562 12.4642 7.26562 10.7815C7.26562 9.09875 5.90149 7.73462 4.21875 7.73462C2.53601 7.73462 1.17188 9.09875 1.17188 10.7815C1.17188 12.4642 2.53601 13.8284 4.21875 13.8284Z" fill="#0BAFEA"/>
<path d="M7.02178 11.9768C6.95589 12.1314 6.8773 12.2802 6.78682 12.4218H1.65049C1.56 12.2802 1.48141 12.1314 1.41553 11.9768H7.02178Z" fill="#0276B4"/>
<path d="M12.3354 14.2969C12.149 14.2969 11.9701 14.2228 11.8383 14.0909C11.7064 13.9591 11.6323 13.7802 11.6323 13.5938V8.67188H13.0386V13.5938C13.0386 13.7802 12.9645 13.9591 12.8326 14.0909C12.7008 14.2228 12.5219 14.2969 12.3354 14.2969Z" fill="#683B0D"/>
<path d="M11.6323 8.67188H13.0386V9.14062H11.6323V8.67188Z" fill="#683B0D"/>
<path d="M13.0386 8.67212H11.6323L11.5313 8.16695C11.2867 6.94422 11.1636 5.70032 11.1636 4.45337H13.5073C13.5073 5.70032 13.3841 6.94422 13.1395 8.16695L13.0386 8.67212Z" fill="#EAEAE8"/>
<path d="M13.2729 6.56274H12.5698C12.5077 6.56274 12.4481 6.53805 12.4041 6.4941C12.3601 6.45014 12.3354 6.39053 12.3354 6.32837C12.3354 6.26621 12.3601 6.20659 12.4041 6.16264C12.4481 6.11869 12.5077 6.09399 12.5698 6.09399H13.2729C13.3351 6.09399 13.3947 6.11869 13.4387 6.16264C13.4826 6.20659 13.5073 6.26621 13.5073 6.32837C13.5073 6.39053 13.4826 6.45014 13.4387 6.4941C13.3947 6.53805 13.3351 6.56274 13.2729 6.56274Z" fill="#FBFDFF"/>
<path d="M8.67188 11.4844H10.5469V14.2969H8.67188V11.4844Z" fill="#EA9D2D"/>
<path d="M8.67188 10.5469H10.5469V11.4844H8.67188V10.5469Z" fill="#FBB540"/>
<path d="M10.3125 10.5469H8.90625V7.9065C8.90625 7.86008 8.91728 7.81432 8.93843 7.773C8.95959 7.73168 8.99025 7.69597 9.02791 7.66883C9.06557 7.64168 9.10914 7.62388 9.15503 7.61688C9.20092 7.60988 9.24782 7.61388 9.29186 7.62856L9.75158 7.78181C9.91492 7.83625 10.057 7.94071 10.1577 8.08038C10.2583 8.22005 10.3125 8.38785 10.3125 8.56002V10.5469Z" fill="#D32B39"/>
<path d="M7.02178 11.9768C6.95589 12.1314 6.8773 12.2802 6.78682 12.4218H1.65049C1.56 12.2802 1.48141 12.1314 1.41553 11.9768H7.02178Z" fill="#0276B4"/>
<path d="M4.21875 12.8906C5.38373 12.8906 6.32812 11.9462 6.32812 10.7812C6.32812 9.61627 5.38373 8.67188 4.21875 8.67188C3.05377 8.67188 2.10938 9.61627 2.10938 10.7812C2.10938 11.9462 3.05377 12.8906 4.21875 12.8906Z" fill="#EAEAE8"/>
<path d="M5.44824 9.06758L2.84434 12.3816C2.59226 12.1653 2.39482 11.8924 2.26807 11.5854L4.44395 8.68408C4.80636 8.72243 5.15251 8.85461 5.44824 9.06758V9.06758Z" fill="#EAEAE8"/>
<path d="M6.28275 10.3444L4.55277 12.5464C4.53404 12.5714 4.51051 12.5924 4.48356 12.6081C4.4566 12.6239 4.42678 12.6341 4.39582 12.6382C4.36487 12.6422 4.33341 12.6401 4.3033 12.6318C4.27319 12.6236 4.24503 12.6094 4.22047 12.5901C4.19592 12.5708 4.17546 12.5468 4.16031 12.5195C4.14516 12.4922 4.13561 12.4622 4.13224 12.4312C4.12886 12.4001 4.13171 12.3687 4.14064 12.3388C4.14957 12.3089 4.16438 12.281 4.18421 12.2569L6.09759 9.82178C6.1824 9.98694 6.24467 10.1627 6.28275 10.3444V10.3444Z" fill="#EAEAE8"/>
<path d="M0.703125 12.4219H7.73438V12.5391C7.73438 12.7699 7.68891 12.9985 7.60057 13.2117C7.51223 13.425 7.38275 13.6188 7.21952 13.782C7.0563 13.9453 6.86252 14.0747 6.64925 14.1631C6.43598 14.2514 6.2074 14.2969 5.97656 14.2969H2.46094C1.99474 14.2969 1.54763 14.1117 1.21798 13.782C0.888323 13.4524 0.703125 13.0053 0.703125 12.5391V12.4219Z" fill="#0BAFEA"/>
<path d="M5.44824 9.06733L2.84434 12.3814C2.59226 12.165 2.39482 11.8922 2.26807 11.5851L4.44395 8.68384C4.80636 8.72219 5.15251 8.85437 5.44824 9.06733V9.06733Z" fill="#FBFDFF"/>
<path d="M6.28285 10.3445L4.55287 12.5464C4.53388 12.5706 4.5103 12.5909 4.48348 12.606C4.45666 12.6211 4.42713 12.6307 4.39657 12.6344C4.36601 12.6381 4.33503 12.6357 4.3054 12.6274C4.27577 12.6191 4.24806 12.605 4.22387 12.586C4.12192 12.506 3.92973 12.5836 4.00971 12.4819L6.09769 9.82178C6.1825 9.98695 6.24477 10.1627 6.28285 10.3445V10.3445Z" fill="#FBFDFF"/>
<path d="M8.20312 2.8125C8.13035 3.03081 8.00774 3.22918 7.84502 3.3919C7.6823 3.55462 7.48393 3.67722 7.26562 3.75L7.64121 4.0004C7.85585 4.14349 8.02942 4.34012 8.1448 4.57084L8.20312 4.6875L8.26145 4.57084C8.37683 4.34012 8.5504 4.14349 8.76504 4.0004L9.14062 3.75C8.92232 3.67722 8.72395 3.55462 8.56123 3.3919C8.39851 3.22918 8.2759 3.03081 8.20312 2.8125V2.8125Z" fill="#FBB540"/>
<path d="M5.625 4.21899C5.55222 4.4373 5.42962 4.63567 5.2669 4.79839C5.10418 4.96111 4.90581 5.08372 4.6875 5.15649L5.06309 5.40689C5.27772 5.54999 5.4513 5.74661 5.56667 5.97733L5.625 6.09399L5.68333 5.97733C5.7987 5.74661 5.97228 5.54999 6.18691 5.40689L6.5625 5.15649C6.34419 5.08372 6.14582 4.96111 5.9831 4.79839C5.82038 4.63567 5.69778 4.4373 5.625 4.21899Z" fill="#FBB540"/>
<path d="M6.5625 0.703125C6.48972 0.921435 6.36712 1.1198 6.2044 1.28252C6.04168 1.44524 5.84331 1.56785 5.625 1.64062L6.00059 1.89103C6.21522 2.03412 6.3888 2.23074 6.50417 2.46146L6.5625 2.57812L6.62083 2.46146C6.7362 2.23074 6.90978 2.03412 7.12441 1.89103L7.5 1.64062C7.28169 1.56785 7.08332 1.44524 6.9206 1.28252C6.75788 1.1198 6.63528 0.921435 6.5625 0.703125V0.703125Z" fill="#FBB540"/>
<path d="M4.92188 12.4219H3.51562C3.25674 12.4219 3.04688 12.6317 3.04688 12.8906C3.04688 13.1495 3.25674 13.3594 3.51562 13.3594H4.92188C5.18076 13.3594 5.39062 13.1495 5.39062 12.8906C5.39062 12.6317 5.18076 12.4219 4.92188 12.4219Z" fill="#0276B4"/>
<path d="M8.90625 10.0781H10.3125V10.5469H8.90625V10.0781Z" fill="#961B20"/>
<path d="M11.6323 8.67188H13.0386V9.14062H11.6323V8.67188Z" fill="#533222"/>
<path d="M13.2732 13.5937V8.69504L13.3697 8.21264C13.6139 6.98974 13.7386 5.74596 13.7418 4.49891L14.4686 2.68198C14.5427 2.49466 14.5505 2.28763 14.4907 2.09526C14.431 1.90288 14.3073 1.73672 14.1401 1.62436L14.1234 1.61326C13.5944 1.25928 12.9723 1.07031 12.3358 1.07031C11.6993 1.07031 11.0772 1.25928 10.5482 1.61326L10.5316 1.62436C10.3644 1.73671 10.2406 1.90287 10.1808 2.09525C10.1211 2.28763 10.1289 2.49466 10.2031 2.68198L10.9298 4.49894C10.933 5.74598 11.0576 6.98975 11.3019 8.21264L11.3984 8.69507V13.5937C11.3984 13.8424 11.4971 14.0808 11.673 14.2566C11.8488 14.4324 12.0872 14.5312 12.3359 14.5312C12.5845 14.5312 12.823 14.4324 12.9988 14.2566C13.1746 14.0808 13.2734 13.8424 13.2734 13.5937H13.2732ZM11.3225 4.21871L10.6382 2.50778C10.6036 2.42036 10.5999 2.32374 10.6278 2.23395C10.6557 2.14416 10.7134 2.06662 10.7915 2.01418L10.8081 2.00308C11.2602 1.7006 11.7918 1.53913 12.3357 1.53913C12.8796 1.53913 13.4113 1.7006 13.8633 2.00308L13.88 2.01418C13.958 2.06661 14.0158 2.14415 14.0437 2.23394C14.0716 2.32372 14.0679 2.42035 14.0334 2.50778L13.3489 4.21871H12.856L13.0343 3.32718C13.0405 3.29693 13.0407 3.26574 13.0348 3.23541C13.029 3.20508 13.0172 3.17621 13.0001 3.15046C12.983 3.12471 12.961 3.10258 12.9354 3.08536C12.9098 3.06813 12.881 3.05615 12.8507 3.05009C12.8204 3.04403 12.7892 3.04402 12.7589 3.05006C12.7286 3.05609 12.6998 3.06806 12.6742 3.08527C12.6485 3.10247 12.6265 3.12458 12.6094 3.15032C12.5923 3.17606 12.5805 3.20492 12.5746 3.23525L12.3781 4.21871H12.2936L12.0968 3.23525C12.0909 3.20492 12.0791 3.17606 12.062 3.15032C12.045 3.12458 12.023 3.10247 11.9973 3.08527C11.9717 3.06806 11.9429 3.05609 11.9126 3.05006C11.8823 3.04402 11.8511 3.04403 11.8208 3.05009C11.7905 3.05615 11.7617 3.06813 11.7361 3.08536C11.7104 3.10258 11.6884 3.12471 11.6714 3.15046C11.6543 3.17621 11.6425 3.20508 11.6366 3.23541C11.6308 3.26574 11.631 3.29693 11.6372 3.32718L11.8156 4.21871H11.3225ZM12.8045 13.5937C12.8045 13.718 12.7551 13.8373 12.6672 13.9252C12.5793 14.0131 12.46 14.0625 12.3357 14.0625C12.2114 14.0625 12.0922 14.0131 12.0043 13.9252C11.9164 13.8373 11.867 13.718 11.867 13.5937V8.90621H12.8045V13.5937ZM12.8468 8.43746H11.8247L11.7614 8.12071C11.5354 6.98986 11.4143 5.84057 11.3996 4.68746H13.2716C13.2658 5.15645 13.2421 5.6252 13.2005 6.09371H12.5701C12.5079 6.09371 12.4483 6.11841 12.4044 6.16236C12.3604 6.20631 12.3357 6.26593 12.3357 6.32809C12.3357 6.39025 12.3604 6.44986 12.4044 6.49382C12.4483 6.53777 12.5079 6.56246 12.5701 6.56246H13.1534C13.0941 7.08541 13.013 7.60483 12.91 8.12071L12.8468 8.43746Z" fill="black"/>
<path d="M9.8257 7.55938L9.36598 7.40621C9.28671 7.37979 9.2023 7.37258 9.11971 7.38518C9.03711 7.39778 8.95869 7.42982 8.8909 7.47867C8.82312 7.52752 8.76791 7.59178 8.72983 7.66615C8.69175 7.74052 8.67189 7.82287 8.67188 7.90643V10.3125C8.60971 10.3125 8.5501 10.3372 8.50615 10.3811C8.46219 10.4251 8.4375 10.4847 8.4375 10.5468V14.2969C8.4375 14.359 8.46219 14.4186 8.50615 14.4626C8.5501 14.5065 8.60971 14.5312 8.67188 14.5312H10.5469C10.609 14.5312 10.6686 14.5065 10.7126 14.4626C10.7566 14.4186 10.7812 14.359 10.7812 14.2969V10.5468C10.7812 10.4847 10.7566 10.4251 10.7126 10.3811C10.6686 10.3372 10.609 10.3125 10.5469 10.3125V8.55998C10.5471 8.33857 10.4775 8.12272 10.348 7.9431C10.2186 7.76348 10.0358 7.62921 9.8257 7.55938ZM9.14062 7.90643C9.14061 7.89713 9.14281 7.88797 9.14704 7.8797C9.15126 7.87142 9.1574 7.86427 9.16493 7.85883C9.17247 7.85339 9.18119 7.84982 9.19037 7.84842C9.19956 7.84702 9.20895 7.84782 9.21776 7.85076L9.67746 8.00399C9.79421 8.04279 9.89576 8.11739 9.96769 8.2172C10.0396 8.31701 10.0783 8.43696 10.0781 8.55998V10.3125H9.14062V7.90643ZM10.3125 14.0625H8.90625V11.7187H10.3125V14.0625ZM10.3125 11.25H8.90625V10.7812H10.3125V11.25Z" fill="black"/>
<path d="M0.46875 12.4219V12.5391C0.469347 13.0673 0.679429 13.5737 1.05291 13.9471C1.42639 14.3206 1.93276 14.5307 2.46094 14.5313H5.97656C6.50474 14.5307 7.01111 14.3206 7.38459 13.9471C7.75807 13.5737 7.96815 13.0673 7.96875 12.5391V12.4219C7.96875 12.3598 7.94406 12.3001 7.9001 12.2562C7.85615 12.2122 7.79654 12.1875 7.73438 12.1875H7.18359C7.42074 11.6874 7.52751 11.1354 7.49397 10.5829C7.46043 10.0304 7.28768 9.49541 6.99178 9.02763C6.69589 8.55985 6.28646 8.17453 5.80162 7.90752C5.31677 7.64051 4.77226 7.50049 4.21875 7.50049C3.66524 7.50049 3.12073 7.64051 2.63588 7.90752C2.15104 8.17453 1.74161 8.55985 1.44572 9.02763C1.14982 9.49541 0.977065 10.0304 0.943528 10.5829C0.909992 11.1354 1.01676 11.6874 1.25391 12.1875H0.703125C0.640965 12.1875 0.581351 12.2122 0.537397 12.2562C0.493443 12.3001 0.46875 12.3598 0.46875 12.4219V12.4219ZM4.21875 7.9688C4.71243 7.96884 5.19741 8.09883 5.62494 8.34568C6.05247 8.59253 6.40751 8.94756 6.65436 9.3751C6.90122 9.80263 7.0312 10.2876 7.03125 10.7813C7.0313 11.275 6.90141 11.76 6.65464 12.1875H6.09454C6.35571 11.8393 6.51474 11.4252 6.55381 10.9916C6.59289 10.558 6.51046 10.1222 6.31577 9.7328C6.12107 9.34344 5.82181 9.01599 5.4515 8.78713C5.08119 8.55828 4.65447 8.43706 4.21915 8.43706C3.78383 8.43706 3.3571 8.55828 2.9868 8.78713C2.61649 9.01599 2.31722 9.34344 2.12252 9.7328C1.92783 10.1222 1.8454 10.558 1.88448 10.9916C1.92355 11.4252 2.08258 11.8393 2.34375 12.1875H1.78286C1.53609 11.76 1.4062 11.275 1.40625 10.7813C1.4063 10.2876 1.53628 9.80263 1.78314 9.3751C2.02999 8.94756 2.38503 8.59253 2.81256 8.34568C3.24009 8.09883 3.72507 7.96884 4.21875 7.9688ZM4.54813 8.93586C4.7419 8.97024 4.92898 9.03514 5.1024 9.12813L2.8217 12.0309C2.70932 11.9053 2.61438 11.7651 2.53945 11.6141L4.54813 8.93586ZM2.36566 11.0646C2.3276 10.8181 2.33917 10.5665 2.39968 10.3246C2.4602 10.0827 2.56845 9.8553 2.71807 9.6558C2.86769 9.45629 3.05567 9.2887 3.27096 9.16285C3.48625 9.03701 3.72453 8.95545 3.97178 8.92297L2.36566 11.0646ZM5.48502 9.39989C5.67698 9.57598 5.83032 9.78999 5.93534 10.0284C5.93534 10.0284 4.25121 12.1744 4.24441 12.1875H3.29473L5.48502 9.39989ZM3.51562 12.6563H4.92188C4.98404 12.6563 5.04365 12.681 5.0876 12.7249C5.13156 12.7689 5.15625 12.8285 5.15625 12.8907C5.15625 12.9528 5.13156 13.0124 5.0876 13.0564C5.04365 13.1004 4.98404 13.125 4.92188 13.125H3.51562C3.45346 13.125 3.39385 13.1004 3.3499 13.0564C3.30594 13.0124 3.28125 12.9528 3.28125 12.8907C3.28125 12.8285 3.30594 12.7689 3.3499 12.7249C3.39385 12.681 3.45346 12.6563 3.51562 12.6563ZM4.83492 12.1875L6.08461 10.597C6.09047 10.6577 6.09375 10.7191 6.09375 10.7813C6.09424 11.0475 6.0378 11.3106 5.92821 11.5532C5.81862 11.7957 5.65842 12.012 5.45836 12.1875H4.83492ZM2.85281 12.6563C2.81526 12.7623 2.80372 12.8759 2.81914 12.9873C2.83457 13.0987 2.87651 13.2048 2.94146 13.2967C3.0064 13.3885 3.09244 13.4635 3.19235 13.5152C3.29227 13.5669 3.40313 13.5938 3.51562 13.5938H4.92188C5.03435 13.5938 5.1452 13.5669 5.2451 13.5152C5.345 13.4635 5.43104 13.3886 5.49599 13.2968C5.56093 13.2049 5.60289 13.0989 5.61834 12.9874C5.63378 12.876 5.62226 12.7625 5.58475 12.6565L5.58571 12.6563H7.49555C7.46557 13.0388 7.29259 13.3959 7.01108 13.6565C6.72956 13.9171 6.36019 14.0621 5.97656 14.0625H2.46094C2.07731 14.0621 1.70794 13.9171 1.42642 13.6565C1.14491 13.3959 0.971932 13.0388 0.941953 12.6563H2.85281Z" fill="black"/>
<path d="M7.13562 3.9449L7.51124 4.1953C7.69189 4.31587 7.83801 4.48144 7.93519 4.67568L7.99352 4.79234C8.01299 4.83126 8.04291 4.864 8.07994 4.88688C8.11696 4.90975 8.15962 4.92187 8.20314 4.92187C8.24666 4.92187 8.28933 4.90975 8.32635 4.88688C8.36337 4.864 8.39329 4.83126 8.41276 4.79234L8.47109 4.67568C8.56827 4.48141 8.71438 4.31581 8.89505 4.19521L9.27066 3.94481C9.30717 3.92047 9.33612 3.88637 9.3542 3.8464C9.37228 3.80642 9.37878 3.76217 9.37296 3.71868C9.36714 3.67519 9.34922 3.63421 9.32125 3.60041C9.29329 3.5666 9.25639 3.54132 9.21477 3.52744C9.0312 3.46577 8.86441 3.36241 8.72747 3.22548C8.59054 3.08854 8.48718 2.92176 8.42551 2.73819C8.40996 2.69151 8.38011 2.65091 8.3402 2.62214C8.30029 2.59336 8.25234 2.57788 8.20314 2.57788C8.15394 2.57788 8.10599 2.59336 8.06608 2.62214C8.02617 2.65091 7.99633 2.69151 7.98078 2.73819C7.9191 2.92176 7.81575 3.08854 7.67881 3.22548C7.54188 3.36241 7.37509 3.46577 7.19152 3.52744C7.14989 3.54132 7.113 3.5666 7.08503 3.60041C7.05706 3.63421 7.03915 3.67519 7.03332 3.71868C7.0275 3.76217 7.034 3.80642 7.05208 3.8464C7.07017 3.88637 7.09911 3.92047 7.13562 3.94481V3.9449ZM8.20314 3.32705C8.32918 3.50661 8.48816 3.66062 8.67163 3.78089L8.63504 3.8053C8.46806 3.91669 8.32189 4.05647 8.20314 4.21829C8.08441 4.05643 7.93824 3.91662 7.77125 3.80521L7.73465 3.7808C7.91812 3.66056 8.07709 3.50658 8.20314 3.32705V3.32705Z" fill="black"/>
<path d="M6.63664 4.93394C6.45307 4.87226 6.28628 4.76891 6.14935 4.63197C6.01241 4.49504 5.90906 4.32825 5.84738 4.14468C5.83183 4.098 5.80199 4.0574 5.76208 4.02863C5.72217 3.99986 5.67422 3.98438 5.62502 3.98438C5.57582 3.98438 5.52787 3.99986 5.48796 4.02863C5.44805 4.0574 5.4182 4.098 5.40265 4.14468C5.34098 4.32825 5.23762 4.49504 5.10069 4.63197C4.96375 4.76891 4.79696 4.87226 4.61339 4.93394C4.57177 4.94781 4.53487 4.97309 4.50691 5.0069C4.47894 5.04071 4.46102 5.08169 4.4552 5.12518C4.44937 5.16866 4.45587 5.21291 4.47396 5.25289C4.49204 5.29287 4.52099 5.32696 4.55749 5.3513L4.93311 5.6017C5.11376 5.72228 5.25988 5.88784 5.35707 6.08208L5.4154 6.19874C5.43487 6.23767 5.46479 6.2704 5.50181 6.29328C5.53883 6.31616 5.5815 6.32828 5.62502 6.32828C5.66854 6.32828 5.7112 6.31616 5.74822 6.29328C5.78525 6.2704 5.81517 6.23767 5.83464 6.19874L5.89297 6.08208C5.99014 5.88781 6.13626 5.72222 6.31692 5.60161L6.69254 5.35121C6.72905 5.32688 6.75799 5.29278 6.77608 5.2528C6.79416 5.21283 6.80066 5.16858 6.79483 5.12509C6.78901 5.0816 6.7711 5.04062 6.74313 5.00681C6.71516 4.973 6.67827 4.94772 6.63664 4.93385V4.93394ZM6.05691 5.2117C5.88994 5.32309 5.74376 5.46287 5.62502 5.6247C5.50629 5.46283 5.36011 5.32302 5.19312 5.21161L5.15653 5.18721C5.33999 5.06696 5.49897 4.91299 5.62502 4.73346C5.75106 4.91302 5.91003 5.06702 6.0935 5.1873L6.05691 5.2117Z" fill="black"/>
<path d="M7.25442 2.08599L7.63004 1.83559C7.66652 1.81124 7.69544 1.77715 7.71351 1.73719C7.73158 1.69722 7.73807 1.65299 7.73225 1.60952C7.72642 1.56604 7.70852 1.52508 7.68057 1.49128C7.65262 1.45748 7.61575 1.4322 7.57414 1.41831C7.39057 1.35664 7.22378 1.25328 7.08685 1.11635C6.94991 0.979414 6.84656 0.812625 6.78488 0.629056C6.76933 0.582378 6.73949 0.541776 6.69958 0.513005C6.65967 0.484233 6.61172 0.46875 6.56252 0.46875C6.51332 0.46875 6.46537 0.484233 6.42546 0.513005C6.38555 0.541776 6.3557 0.582378 6.34015 0.629056C6.27848 0.812625 6.17512 0.979414 6.03819 1.11635C5.90125 1.25328 5.73446 1.35664 5.55089 1.41831C5.50927 1.43219 5.47237 1.45747 5.44441 1.49128C5.41644 1.52508 5.39852 1.56606 5.3927 1.60955C5.38687 1.65304 5.39337 1.69729 5.41146 1.73727C5.42954 1.77724 5.45849 1.81134 5.49499 1.83568L5.87061 2.08599C6.05127 2.20659 6.19739 2.37219 6.29457 2.56646L6.3529 2.68312C6.37237 2.72204 6.40229 2.75478 6.43931 2.77766C6.47633 2.80054 6.519 2.81265 6.56252 2.81265C6.60604 2.81265 6.6487 2.80054 6.68572 2.77766C6.72275 2.75478 6.75267 2.72204 6.77214 2.68312L6.83047 2.56646C6.92764 2.37219 7.07376 2.20659 7.25442 2.08599V2.08599ZM6.56252 2.10908C6.44379 1.94721 6.29761 1.8074 6.13062 1.69599L6.09403 1.67159C6.27749 1.55134 6.43647 1.39736 6.56252 1.21784C6.68856 1.39739 6.84753 1.5514 7.031 1.67167L6.99441 1.69608C6.82744 1.80747 6.68126 1.94725 6.56252 2.10908V2.10908Z" fill="black"/>
</svg>
