<svg id="Capa_1" enable-background="new 0 0 511.993 511.993" height="512" viewBox="0 0 511.993 511.993" width="512" xmlns="http://www.w3.org/2000/svg"><g><g><path d="m333.578 162.124h-30v-64.914c0-24.951-20.299-45.25-45.25-45.25h-4.664c-24.951 0-45.25 20.299-45.25 45.25v64.914h-30v-64.914c0-41.493 33.757-75.25 75.25-75.25h4.664c41.493 0 75.25 33.757 75.25 75.25z" fill="#2e3e59"/></g><path d="m258.329 21.96h-2.332v30h2.332c24.951 0 45.25 20.299 45.25 45.25v64.914h30v-64.914c-.001-41.493-33.758-75.25-75.25-75.25z" fill="#1b2a36"/><g><path d="m454.483 490.033h-396.973c-17.294 0-33.502-7.671-44.467-21.045-10.964-13.375-15.308-30.771-11.916-47.73l45.583-227.912c5.356-26.783 29.069-46.222 56.382-46.222h305.809c27.313 0 51.026 19.439 56.382 46.222l45.583 227.911c3.392 16.959-.952 34.356-11.916 47.73-10.965 13.375-27.173 21.046-44.467 21.046z" fill="#ff73b9"/></g><path d="m465.283 193.346c-5.356-26.783-29.069-46.222-56.382-46.222h-152.904v342.909h198.486c17.294 0 33.502-7.671 44.467-21.045 10.964-13.375 15.308-30.771 11.916-47.73z" fill="#f25588"/><g><path d="m162.124 271.997c-8.284 0-15-6.716-15-15v-31.291c0-8.284 6.716-15 15-15s15 6.716 15 15v31.291c0 8.284-6.716 15-15 15z" fill="#e9d637"/></g><g><path d="m381.16 239.706h-250.327c-8.284 0-15-6.716-15-15s6.716-15 15-15h250.327c8.284 0 15 6.716 15 15s-6.716 15-15 15z" fill="#2e3e59"/></g><path d="m381.16 209.706h-125.163v30h125.163c8.284 0 15-6.716 15-15s-6.716-15-15-15z" fill="#1b2a36"/></g></svg>