<svg id="Capa_1" enable-background="new 0 0 512 512" height="512" viewBox="0 0 512 512" width="512" xmlns="http://www.w3.org/2000/svg"><g><path d="m328 223h-144c-8.71 0-15.67-7.43-14.95-16.24l5.67-68.35 4.26-51.41 1.34-16.24 4.73-57c.65-7.78 7.15-13.76 14.95-13.76h112c7.8 0 14.3 5.98 14.95 13.76l4.73 57 1.34 16.24 4.26 51.41 1.78 21.37 1.76 21.33 2.13 25.65c.72 8.83-6.25 16.24-14.95 16.24z" fill="#af705c"/><path d="m328 223h-72v-223h56c7.8 0 14.3 5.98 14.95 13.76l4.73 57 1.34 16.24 4.26 51.41 1.78 21.37 1.76 21.33 2.13 25.65c.72 8.83-6.25 16.24-14.95 16.24z" fill="#6b5c59"/><path d="m330.46 56h-148.92l3.51-42.24c.65-7.78 7.15-13.76 14.95-13.76h112c7.8 0 14.3 5.98 14.95 13.76z" fill="#6b5c59"/><path d="m330.46 56h-74.46v-56h56c7.8 0 14.3 5.98 14.95 13.76z" fill="#4f4540"/><path d="m342.95 305.24-2.13 25.65-1.76 21.32-1.78 21.38-4.26 51.41-1.34 16.24-4.73 57c-.65 7.78-7.15 13.76-14.95 13.76h-112c-7.8 0-14.3-5.98-14.95-13.76l-4.73-57-1.34-16.24-4.26-51.41-5.67-68.35c-.72-8.83 6.25-16.24 14.95-16.24h144c8.71 0 15.67 7.43 14.95 16.24z" fill="#af705c"/><path d="m342.95 305.24-2.13 25.65-1.76 21.32-1.78 21.38-4.26 51.41-1.34 16.24-4.73 57c-.65 7.78-7.15 13.76-14.95 13.76h-56v-223h72c8.71 0 15.67 7.43 14.95 16.24z" fill="#6b5c59"/><path d="m330.46 456-3.51 42.24c-.65 7.78-7.15 13.76-14.95 13.76h-112c-7.8 0-14.3-5.98-14.95-13.76l-3.51-42.24z" fill="#6b5c59"/><path d="m330.46 456-3.51 42.24c-.65 7.78-7.15 13.76-14.95 13.76h-56v-56z" fill="#4f4540"/><path d="m350.42 184.58c-13.244 0-20.083-16.131-10.606-25.606l17.58-17.58c5.857-5.857 15.355-5.857 21.213 0s5.858 15.355 0 21.213l-17.58 17.58c-2.929 2.928-6.768 4.393-10.607 4.393z" fill="#0a617d"/><path d="m368 375c-3.839 0-7.678-1.465-10.606-4.394l-17.58-17.58c-5.858-5.857-5.858-15.355 0-21.213 5.857-5.857 15.355-5.857 21.213 0l17.58 17.58c9.477 9.477 2.635 25.607-10.607 25.607z" fill="#0a617d"/><circle cx="256" cy="256" fill="#f1f1fa" r="128"/><path d="m384 256c0 70.69-57.31 128-128 128v-256c70.69 0 128 57.31 128 128z" fill="#d6d6fa"/><path d="m271 113.78v46.22c0 8.28-6.72 15-15 15s-15-6.72-15-15v-46.22c9.762-1.03 20.042-1.051 30 0z" fill="#d6d6fa"/><path d="m256 175v-62c5.06 0 10.07.26 15 .78v46.22c0 8.28-6.72 15-15 15z" fill="#a1a1cd"/><path d="m271 352v46.22c-9.856 1.041-20.14 1.041-30 0v-46.22c0-8.28 6.72-15 15-15s15 6.72 15 15z" fill="#d6d6fa"/><path d="m271 352v46.22c-4.93.521-9.94.78-15 .78v-62c8.28 0 15 6.72 15 15z" fill="#a1a1cd"/><path d="m175 256c0 8.28-6.72 15-15 15h-46.22c-1.02-9.667-1.061-19.942 0-30h46.22c8.28 0 15 6.72 15 15z" fill="#d6d6fa"/><path d="m398.22 271h-46.22c-8.28 0-15-6.72-15-15s6.72-15 15-15h46.22c1.02 9.667 1.061 19.942 0 30z" fill="#a1a1cd"/><path d="m306.61 306.61c-5.824 5.825-15.339 5.882-21.22 0l-40-40c-2.81-2.82-4.39-6.63-4.39-10.61v-32c0-8.28 6.72-15 15-15s15 6.72 15 15v25.79l35.61 35.6c5.85 5.86 5.85 15.36 0 21.22z" fill="#0d8ebc"/><path d="m306.61 306.61c-5.824 5.825-15.339 5.882-21.22 0l-29.39-29.39v-68.22c8.28 0 15 6.72 15 15v25.79l35.61 35.6c5.85 5.86 5.85 15.36 0 21.22z" fill="#0a617d"/><path d="m256 113c-78.85 0-143 64.15-143 143s64.15 143 143 143 143-64.15 143-143-64.15-143-143-143zm0 256c-62.31 0-113-50.69-113-113s50.69-113 113-113 113 50.69 113 113-50.69 113-113 113z" fill="#ffe278"/><path d="m399 256c0 78.85-64.15 143-143 143v-30c62.31 0 113-50.69 113-113s-50.69-113-113-113v-30c78.85 0 143 64.15 143 143z" fill="#ecb455"/></g></svg>